<svg width="41" height="41" viewBox="0 0 41 41" fill="none" xmlns="http://www.w3.org/2000/svg">
<path fill-rule="evenodd" clip-rule="evenodd" d="M20.5 10.25C19.2836 10.25 18.0946 10.6107 17.0832 11.2864C16.0719 11.9622 15.2836 12.9227 14.8181 14.0465C14.3527 15.1703 14.2309 16.4068 14.4682 17.5998C14.7055 18.7928 15.2912 19.8886 16.1513 20.7487C17.0114 21.6088 18.1072 22.1945 19.3002 22.4318C20.4932 22.6691 21.7298 22.5473 22.8535 22.0818C23.9773 21.6164 24.9378 20.8281 25.6136 19.8168C26.2893 18.8054 26.65 17.6163 26.65 16.4C26.665 15.5882 26.5162 14.7817 26.2125 14.0288C25.9087 13.2759 25.4563 12.5919 24.8822 12.0178C24.3081 11.4437 23.6241 10.9913 22.8712 10.6875C22.1182 10.3838 21.3118 10.235 20.5 10.25ZM20.5 0C16.4455 0 12.482 1.2023 9.1108 3.45487C5.73959 5.70744 3.11206 8.90908 1.56046 12.655C0.00886485 16.4008 -0.39708 20.5227 0.393917 24.4993C1.18491 28.4759 3.13732 32.1287 6.0043 34.9957C8.87127 37.8627 12.5241 39.8151 16.5007 40.6061C20.4773 41.3971 24.5991 40.9911 28.345 39.4395C32.0909 37.8879 35.2926 35.2604 37.5451 31.8892C39.7977 28.5179 41 24.5545 41 20.5C40.9843 15.0679 38.8195 9.86272 34.9784 6.02162C31.1373 2.18052 25.9321 0.015685 20.5 0ZM30.34 33.62C29.6236 31.5821 28.2921 29.817 26.5295 28.5684C24.7669 27.3197 22.6601 26.649 20.5 26.649C18.3399 26.649 16.2331 27.3197 14.4705 28.5684C12.7079 29.817 11.3764 31.5821 10.66 33.62C8.64616 32.071 7.00966 30.0857 5.87345 27.8132C4.73724 25.5408 4.13089 23.0404 4.1 20.5C4.1 16.1504 5.82784 11.979 8.90344 8.90343C11.979 5.82784 16.1505 4.1 20.5 4.1C24.8496 4.1 29.021 5.82784 32.0966 8.90343C35.1722 11.979 36.9 16.1504 36.9 20.5C36.8691 23.0404 36.2628 25.5408 35.1265 27.8132C33.9903 30.0857 32.3538 32.071 30.34 33.62Z" fill="#3C3C41"/>
</svg>
